<svg width="60" height="60" viewBox="0 0 60 60" fill="none" xmlns="http://www.w3.org/2000/svg">
<g clip-path="url(#clip0_27_76)">
<path d="M60 7.05884H0V21.1765H3.52941V60H56.4706V21.1765H60V7.05884ZM52.9412 56.4706H7.05882V21.1765H52.9412V56.4706ZM56.4706 17.6471H3.52941V10.5882H56.4706V17.6471ZM21.1765 38.8235H38.88C42.7729 38.8235 45.9388 35.6577 45.9388 31.7647C45.9388 27.8718 42.7729 24.7059 38.88 24.7059H21.1765C17.2835 24.7059 14.1176 27.8718 14.1176 31.7647C14.1176 35.6577 17.2835 38.8235 21.1765 38.8235ZM21.1765 28.2353H38.88C40.8282 28.2353 42.4094 29.8165 42.4094 31.7647C42.4094 33.713 40.8282 35.2941 38.88 35.2941H21.1765C19.2282 35.2941 17.6471 33.713 17.6471 31.7647C17.6471 29.8165 19.2282 28.2353 21.1765 28.2353Z" fill="white"/>
</g>
<defs>
<clipPath id="clip0_27_76">
<rect width="60" height="60" fill="white"/>
</clipPath>
</defs>
</svg>
