<svg width="60" height="60" viewBox="0 0 60 60" fill="none" xmlns="http://www.w3.org/2000/svg">
<g clip-path="url(#clip0_3_38)">
<path d="M37.8359 51.9093H7.02928V8.05669H37.8371C38.52 8.05669 39.0742 7.50246 39.0742 6.81958V2.26391C39.0742 1.58102 38.52 1.02679 37.8371 1.02679H1.23711C0.554227 1.02679 0 1.58102 0 2.26391V57.7008C0 58.3837 0.554227 58.9379 1.23711 58.9379H37.8359C38.5194 58.9379 39.073 58.3837 39.073 57.7008V53.1464C39.073 52.4623 38.52 51.9093 37.8359 51.9093Z" fill="white"/>
<path d="M59.601 29.1081L42.9482 12.4565C42.4843 11.992 41.6629 11.9926 41.1989 12.4565L37.2482 16.4078C36.7651 16.8909 36.7651 17.674 37.2482 18.1571L44.7699 25.68H12.2084C11.5255 25.68 10.9713 26.2342 10.9713 26.9171V33.0483C10.9713 33.7311 11.5255 34.2854 12.2084 34.2854H44.7717L37.2501 41.8083C36.767 42.2914 36.767 43.0744 37.2501 43.5575L41.2008 47.5095C41.4328 47.7415 41.7482 47.872 42.0754 47.872C42.4039 47.872 42.7181 47.7415 42.9501 47.5095L59.6029 30.858C59.8348 30.626 59.9653 30.3105 59.9653 29.9833C59.9647 29.6542 59.833 29.34 59.601 29.1081Z" fill="white"/>
</g>
<defs>
<clipPath id="clip0_3_38">
<rect width="59.9647" height="59.9647" fill="white"/>
</clipPath>
</defs>
</svg>
