<svg width="65" height="65" viewBox="0 0 65 65" fill="none" xmlns="http://www.w3.org/2000/svg">
<path d="M58.0357 27.6148H58.6786C58.6786 27.5848 58.6749 27.5392 58.6611 27.4758C58.6605 27.4731 58.6599 27.4703 58.6593 27.4675C58.6487 27.421 58.6327 27.3652 58.6089 27.2995C58.5493 27.1353 58.4575 26.955 58.3381 26.7624L58.0357 27.6148ZM58.0357 27.6148C58.0278 27.5813 57.9865 27.4149 57.7915 27.1008C57.5965 26.7867 57.3404 26.4729 57.0793 26.1792M58.0357 27.6148L57.0793 26.1792M57.0793 26.1792L55.2885 24.7141M57.0793 26.1792L55.2885 24.7141M55.2885 24.7141C55.3551 24.6511 55.4258 24.5886 55.5009 24.527C55.5976 24.4478 55.698 24.3732 55.8017 24.3035L57.4863 25.6817L57.5253 25.7136C57.5367 25.7263 57.5481 25.7391 57.5596 25.752C57.8301 26.056 58.1144 26.4021 58.3374 26.7613L55.2885 24.7141Z" stroke="white" stroke-width="8"/>
</svg>
