<svg width="60" height="60" viewBox="0 0 60 60" fill="none" xmlns="http://www.w3.org/2000/svg">
<g clip-path="url(#clip0_27_35)">
<path d="M56.9288 23.7017L52.7174 22.9873C52.2788 21.571 51.7147 20.2048 51.0254 18.9013L53.5071 15.4294C54.5599 13.9504 54.397 11.9324 53.106 10.654L49.3709 6.91888C48.669 6.21698 47.7415 5.82843 46.7513 5.82843C45.9742 5.82843 45.2347 6.06657 44.608 6.51779L41.1236 8.9995C39.77 8.28507 38.3536 7.69598 36.8872 7.25729L36.1853 3.09605C35.8845 1.30371 34.3428 0.000183105 32.5254 0.000183105H27.2486C25.4312 0.000183105 23.8896 1.30371 23.5887 3.09605L22.8618 7.35756C21.458 7.79625 20.0918 8.37281 18.7883 9.0747L15.3415 6.593C14.7148 6.14178 13.9627 5.90363 13.1856 5.90363C12.1955 5.90363 11.2554 6.29218 10.5661 6.99408L6.81842 10.7292C5.53997 12.0076 5.3645 14.0256 6.41734 15.5046L8.92411 19.0266C8.23475 20.3426 7.68326 21.7088 7.25711 23.1252L3.09587 23.8271C1.30352 24.1279 0 25.6695 0 27.4869V32.7637C0 34.5811 1.30352 36.1228 3.09587 36.4236L7.35738 37.1506C7.79607 38.5544 8.37262 39.9205 9.07452 41.2241L6.60535 44.6583C5.5525 46.1373 5.71544 48.1553 7.00643 49.4337L10.7415 53.1688C11.4434 53.8707 12.3709 54.2593 13.3611 54.2593C14.1382 54.2593 14.8777 54.0211 15.5044 53.5699L19.0264 51.0632C20.2923 51.7274 21.6209 52.2664 22.9871 52.6926L23.689 56.9039C23.9898 58.6963 25.5315 59.9998 27.3489 59.9998H32.6382C34.4556 59.9998 35.9973 58.6963 36.2981 56.9039L37.0125 52.6926C38.4288 52.2539 39.795 51.6898 41.0986 51.0005L44.5704 53.4822C45.1971 53.9334 45.9492 54.1715 46.7263 54.1715C47.7164 54.1715 48.6439 53.783 49.3458 53.0811L53.0809 49.346C54.3594 48.0676 54.5349 46.0496 53.482 44.5706L51.0003 41.0862C51.6897 39.7701 52.2662 38.4039 52.6924 37.0002L56.9038 36.2983C58.6961 35.9974 59.9996 34.4558 59.9996 32.6384V27.3616C60.0247 25.5442 58.7212 24.0025 56.9288 23.7017ZM56.6405 32.6384C56.6405 32.8013 56.5277 32.9392 56.3648 32.9643L51.1006 33.8416C50.4363 33.9544 49.9099 34.4432 49.7469 35.0825C49.2706 36.925 48.5437 38.6922 47.566 40.3342C47.2276 40.9107 47.2527 41.6252 47.6412 42.1766L50.7371 46.5384C50.8248 46.6638 50.8123 46.8518 50.6995 46.9646L46.9644 50.6997C46.8767 50.7874 46.7889 50.7999 46.7263 50.7999C46.6511 50.7999 46.5884 50.7749 46.5382 50.7373L42.189 47.6414C41.65 47.2529 40.9231 47.2278 40.3465 47.5662C38.7046 48.5438 36.9373 49.2708 35.0948 49.7471C34.4431 49.91 33.9542 50.449 33.854 51.1008L32.9641 56.365C32.939 56.5279 32.8011 56.6407 32.6382 56.6407H27.3614C27.1985 56.6407 27.0606 56.5279 27.0356 56.365L26.1582 51.1008C26.0454 50.4365 25.5566 49.91 24.9173 49.7471C23.125 49.2833 21.3953 48.5689 19.7784 47.6414C19.5152 47.491 19.2144 47.4158 18.9261 47.4158C18.5877 47.4158 18.2368 47.5161 17.9485 47.7291L13.5616 50.8501C13.499 50.8877 13.4363 50.9127 13.3736 50.9127C13.3235 50.9127 13.2232 50.9002 13.1355 50.8125L9.4004 47.0774C9.2876 46.9646 9.27506 46.7891 9.3628 46.6512L12.4461 42.327C12.8347 41.7756 12.8597 41.0486 12.5213 40.472C11.5437 38.8426 10.7917 37.0754 10.3154 35.2329C10.1399 34.5937 9.61348 34.1048 8.96172 33.992L3.65989 33.0896C3.49695 33.0645 3.38414 32.9266 3.38414 32.7637V27.4869C3.38414 27.324 3.49695 27.1861 3.65989 27.1611L8.88651 26.2837C9.55081 26.1709 10.0898 25.6821 10.2527 25.0303C10.7165 23.1878 11.4309 21.408 12.396 19.7661C12.7344 19.1895 12.6968 18.4751 12.3083 17.9361L9.18733 13.5493C9.09959 13.424 9.11212 13.2359 9.22493 13.1231L12.96 9.38805C13.0478 9.30031 13.1355 9.28778 13.1982 9.28778C13.2734 9.28778 13.336 9.31285 13.3862 9.35045L17.7104 12.4338C18.2618 12.8223 18.9888 12.8474 19.5654 12.509C21.1948 11.5313 22.962 10.7793 24.8045 10.303C25.4437 10.1275 25.9326 9.60112 26.0454 8.94936L26.9478 3.64754C26.9729 3.4846 27.1108 3.37179 27.2737 3.37179H32.5505C32.7134 3.37179 32.8513 3.4846 32.8763 3.64754L33.7537 8.87416C33.8665 9.53846 34.3553 10.0774 35.0071 10.2404C36.8997 10.7166 38.7046 11.4561 40.3841 12.4463C40.9607 12.7847 41.6751 12.7597 42.2266 12.3711L46.5508 9.26271C46.6135 9.22511 46.6761 9.20004 46.7388 9.20004C46.7889 9.20004 46.8892 9.21257 46.9769 9.30031L50.712 13.0354C50.8248 13.1482 50.8374 13.3237 50.7496 13.4616L47.6538 17.8108C47.2652 18.3498 47.2401 19.0767 47.5786 19.6533C48.5562 21.2952 49.2832 23.0625 49.7595 24.905C49.9224 25.5567 50.4613 26.0456 51.1131 26.1458L56.3773 27.0357C56.5403 27.0608 56.6531 27.1987 56.6531 27.3616V32.6384H56.6405V32.6384Z" fill="white"/>
<path d="M30.0061 17.0461C22.8618 17.0461 17.0586 22.8493 17.0586 29.9936C17.0586 37.1379 22.8618 42.9411 30.0061 42.9411C37.1504 42.9411 42.9536 37.1379 42.9536 29.9936C42.9536 22.8493 37.1504 17.0461 30.0061 17.0461ZM30.0061 39.557C24.7293 39.557 20.4427 35.2704 20.4427 29.9936C20.4427 24.7169 24.7293 20.4303 30.0061 20.4303C35.2828 20.4303 39.5694 24.7169 39.5694 29.9936C39.5694 35.2704 35.2828 39.557 30.0061 39.557Z" fill="white"/>
</g>
<defs>
<clipPath id="clip0_27_35">
<rect width="60" height="60" fill="white"/>
</clipPath>
</defs>
</svg>
