<svg width="60" height="60" viewBox="0 0 60 60" fill="none" xmlns="http://www.w3.org/2000/svg">
<g clip-path="url(#clip0_27_54)">
<path d="M55.517 46.55L45.744 42.317C45.514 42.202 45.259 41.921 45.04 41.546L51.565 41.541C51.679 41.552 54.369 41.798 56.526 40.871C57.343 40.519 57.951 39.824 58.195 38.964C58.441 38.096 58.285 37.177 57.769 36.441C55.904 33.787 51.551 26.852 51.415 19.818C51.412 19.697 51.018 7.735 39.205 7.638C37.466 7.652 35.858 7.947 34.395 8.491C34.076 7.678 33.606 6.83 32.907 6.032C30.854 3.688 27.521 2.5 23 2.5C18.479 2.5 15.146 3.688 13.092 6.03C10.724 8.731 10.944 12.006 11 12.555V17.874C10.36 18.603 10 19.536 10 20.499V24.499C10 25.716 10.553 26.851 11.497 27.608C12.413 31.235 14.33 33.968 15 34.845V38.154C15 39.122 14.472 40.01 13.623 40.474L4.702 45.34C1.801 46.924 0 49.958 0 53.262V57.5H44H46H60V53.803C60 50.711 58.282 47.933 55.517 46.55ZM44 55.5H2V53.262C2 50.691 3.402 48.328 5.659 47.098L14.58 42.232C16.073 41.417 17 39.854 17 38.155V34.136L16.767 33.858C16.743 33.829 14.292 30.864 13.357 26.793L13.266 26.397L12.925 26.177C12.346 25.803 12 25.176 12 24.5V20.5C12 19.939 12.238 19.416 12.67 19.025L13 18.728V12.5L12.991 12.369C12.988 12.342 12.648 9.57 14.596 7.348C16.253 5.458 19.081 4.5 23 4.5C26.905 4.5 29.727 5.451 31.386 7.328C32.211 8.26 32.626 9.301 32.833 10.195C32.849 10.265 32.864 10.334 32.878 10.403C32.892 10.474 32.907 10.545 32.918 10.613C32.931 10.691 32.942 10.765 32.953 10.839C32.961 10.892 32.969 10.946 32.975 10.997C32.99 11.121 33.002 11.241 33.01 11.352C33.011 11.361 33.011 11.369 33.011 11.378C33.018 11.486 33.023 11.588 33.026 11.681C33.026 11.699 33.026 11.714 33.027 11.732C33.029 11.815 33.029 11.894 33.028 11.963C33.028 11.973 33.028 11.983 33.028 11.993C33.024 12.228 33.008 12.368 33.008 12.371L33 18.728L33.33 19.026C33.762 19.416 34 19.939 34 20.5V24.5C34 25.373 33.428 26.137 32.578 26.399L32.08 26.552L31.92 27.047C31.251 29.128 30.298 31.05 29.086 32.76C28.789 33.181 28.5 33.554 28.249 33.839L28 34.123V38.248C28 38.501 28.025 38.749 28.064 38.993C28.072 39.045 28.086 39.095 28.096 39.147C28.135 39.348 28.187 39.545 28.251 39.737C28.266 39.782 28.282 39.825 28.299 39.87C28.377 40.079 28.468 40.281 28.574 40.475C28.586 40.497 28.597 40.52 28.609 40.542C28.754 40.798 28.921 41.041 29.113 41.265L29.341 41.546H29.38C29.723 41.884 30.117 42.178 30.565 42.402L40.118 47.178C42.513 48.374 44 50.78 44 53.457V55.5ZM58 55.5H46V53.457C46 50.018 44.089 46.927 41.014 45.389L34.156 41.959C34.325 41.573 34.347 41.131 34.199 40.705C33.954 40 33.314 39.545 32.569 39.545H30.352C30.306 39.464 30.276 39.375 30.239 39.289C30.189 39.174 30.13 39.061 30.097 38.94C30.036 38.718 30 38.486 30 38.248V34.867C30.229 34.587 30.47 34.268 30.719 33.916C31.958 32.166 32.951 30.218 33.673 28.117C35.084 27.47 36 26.075 36 24.5V20.5C36 19.537 35.64 18.604 35 17.875V12.556C35.026 12.306 35.082 11.487 34.916 10.417C36.204 9.911 37.647 9.65 39.206 9.637C49.047 9.718 49.406 19.448 49.416 19.858C49.563 27.441 54.162 34.785 56.133 37.59C56.302 37.83 56.353 38.132 56.272 38.417C56.226 38.581 56.094 38.879 55.737 39.032C54.057 39.755 51.778 39.55 51.661 39.545H44.778C44.135 39.545 43.549 39.872 43.21 40.419C42.872 40.964 42.84 41.63 43.124 42.202C43.437 42.833 43.99 43.676 44.899 44.129L54.646 48.351C56.715 49.396 58 51.482 58 53.803V55.5Z" stroke="white" stroke-width="2"/>
</g>
<defs>
<clipPath id="clip0_27_54">
<rect width="60" height="60" fill="white"/>
</clipPath>
</defs>
</svg>
